<?xml version="1.0" encoding="UTF-8"?><svg id="Layer_2" xmlns="http://www.w3.org/2000/svg" viewBox="0 0 179.1 263"><g id="Layer_2-2"><path d="M69.92,191.27h-20.74v-85.12c.54.63,4.24,4.78,10.37,4.78s9.83-4.16,10.37-4.78v85.12Z" fill="#095d6a" stroke="#1b7487" stroke-miterlimit="10" stroke-width="5"/><path d="M128.37,191.27h-20.74v-85.12c.54.63,4.24,4.78,10.37,4.78s9.83-4.16,10.37-4.78v85.12Z" fill="#095d6a" stroke="#1b7487" stroke-miterlimit="10" stroke-width="5"/><path d="M99.15,191.27h-20.74v-107.12c.54.79,4.24,6.02,10.37,6.02s9.83-5.23,10.37-6.02v107.12Z" fill="#095d6a" stroke="#1b7487" stroke-miterlimit="10"/><path d="M139.78,196.05H38.59c-1.82,0-3.3-1.5-3.3-3.35v-31.37c0-1.07-.49-2.07-1.35-2.69-13.76-10.06-27.99-35.47-29.76-64.2-1.8-29.2,9.72-54.63,32.45-71.63C66,.87,93.06,2.06,110.6,6.92c18.96,5.26,30.85,15.62,31.35,16.06l.08.08c22.37,21.13,33.49,44.04,33.06,68.09-.6,33.81-23.72,59.1-31.01,66.25-.64.63-1,1.49-1,2.4v32.91c0,1.85-1.48,3.35-3.3,3.35ZM45.19,189.36h87.99c1.82,0,3.3-1.5,3.3-3.35v-29.13c0-.97.42-1.89,1.14-2.53h0c.3-.27,30.25-27.07,30.87-63.37.38-22.03-10.02-43.22-30.91-62.98-.69-.59-11.87-10.01-28.98-14.7-23.37-6.4-46.27-1.39-68.04,14.89C13.81,48.2,9.6,75.03,10.77,94.02c1.77,28.58,16.35,53.33,29.43,60.75h0c1.04.59,1.69,1.71,1.69,2.92v28.32c0,1.85,1.48,3.35,3.3,3.35Z" fill="#0d869a" stroke="#1b7487" stroke-miterlimit="10" stroke-width="8"/><rect x="40.22" y="204.18" width="96.17" height="18.17" rx="4.37" ry="4.37" fill="#0c7286" stroke-width="0"/><rect x="50.59" y="225.7" width="75.43" height="16.26" rx="3.91" ry="3.91" fill="#0c7286" stroke-width="0"/><rect x="64.73" y="245.79" width="47.14" height="17.21" rx="4.14" ry="4.14" fill="#0c7286" stroke-width="0"/><path d="M127.43,96.59c0,5.28-4.33,9.56-9.66,9.56s-9.66-4.28-9.66-9.56c0-2.3.82-4.41,2.17-6.05l-13.6-12.17c-1.75,1.8-4.21,2.92-6.94,2.92-2.23,0-4.29-.75-5.92-2.01l-14.96,13.39c-.06.06-.13.11-.19.15.5,1.16.78,2.43.78,3.77,0,5.28-4.33,9.56-9.66,9.56s-9.66-4.28-9.66-9.56,4.33-9.56,9.66-9.56c2.23,0,4.29.75,5.92,2.01l14.96-13.39c.06-.06.13-.11.19-.15-.5-1.16-.78-2.43-.78-3.77,0-5.28,4.33-9.56,9.66-9.56s9.66,4.28,9.66,9.56c0,.87-.12,1.72-.35,2.52.26.1.5.25.72.44l14.51,12.98c1.08-.41,2.25-.64,3.48-.64,5.33,0,9.66,4.28,9.66,9.56Z" fill="#f09a16" stroke-width="0"/><path d="M154.61,87.02c-3.54-34.93-33.22-61.23-66.94-60.25-32.37.94-59.81,26.76-63.17,60.25v3.83c5.01-32.35,32.77-56.43,65.06-56.43s60.04,24.08,65.06,56.43v-3.83Z" opacity=".21" stroke-width="0"/></g></svg>