<?xml version="1.0" encoding="UTF-8"?><svg id="Layer_2" xmlns="http://www.w3.org/2000/svg" viewBox="0 0 424.41 128.54"><g id="Layer_2-2"><path d="M35.7,94.05h-9.97v-40.93c.26.3,2.04,2.3,4.99,2.3s4.73-2,4.99-2.3v40.93Z" fill="#095d6a" stroke="#1b7487" stroke-miterlimit="10" stroke-width="5"/><path d="M63.81,94.05h-9.97v-40.93c.26.3,2.04,2.3,4.99,2.3s4.73-2,4.99-2.3v40.93Z" fill="#095d6a" stroke="#1b7487" stroke-miterlimit="10" stroke-width="5"/><path d="M49.75,94.05h-9.97v-51.51c.26.38,2.04,2.89,4.99,2.89s4.73-2.51,4.99-2.89v51.51Z" fill="#095d6a" stroke="#1b7487" stroke-miterlimit="10"/><path d="M69.29,96.35H20.63c-.88,0-1.59-.72-1.59-1.61v-15.09c0-.51-.24-.99-.65-1.29-6.62-4.84-13.46-17.05-14.31-30.87-.87-14.04,4.67-26.27,15.6-34.44C33.81,2.49,46.83,3.07,55.26,5.41c9.12,2.53,14.83,7.51,15.07,7.72l.04.04c10.75,10.16,16.1,21.18,15.9,32.74-.29,16.26-11.4,28.42-14.91,31.86-.31.3-.48.72-.48,1.15v15.82c0,.89-.71,1.61-1.59,1.61ZM23.81,93.13h42.31c.88,0,1.59-.72,1.59-1.61v-14.01c0-.47.2-.91.55-1.22h0c.14-.13,14.55-13.02,14.85-30.47.18-10.6-4.82-20.78-14.86-30.28-.33-.28-5.71-4.81-13.94-7.07-11.24-3.08-22.25-.67-32.72,7.16-12.86,9.61-14.88,22.52-14.32,31.65.85,13.74,7.86,25.64,14.15,29.21h0c.5.28.81.82.81,1.4v13.62c0,.89.71,1.61,1.59,1.61Z" fill="#0d869a" stroke="#1b7487" stroke-miterlimit="10" stroke-width="8"/><rect x="21.42" y="100.26" width="46.24" height="8.74" rx="4.37" ry="4.37" fill="#0c7286" stroke-width="0"/><rect x="26.4" y="110.61" width="36.27" height="7.82" rx="3.91" ry="3.91" fill="#0c7286" stroke-width="0"/><rect x="33.2" y="120.26" width="22.67" height="8.28" rx="4.14" ry="4.14" fill="#0c7286" stroke-width="0"/><path d="M63.35,48.52c0,2.54-2.08,4.6-4.65,4.6s-4.65-2.06-4.65-4.6c0-1.1.39-2.12,1.05-2.91l-6.54-5.85c-.84.86-2.03,1.4-3.34,1.4-1.07,0-2.06-.36-2.85-.97l-7.19,6.44s-.06.05-.09.07c.24.56.38,1.17.38,1.81,0,2.54-2.08,4.6-4.65,4.6s-4.65-2.06-4.65-4.6,2.08-4.6,4.65-4.6c1.07,0,2.06.36,2.85.97l7.19-6.44s.06-.05.09-.07c-.24-.56-.38-1.17-.38-1.81,0-2.54,2.08-4.6,4.65-4.6s4.65,2.06,4.65,4.6c0,.42-.06.83-.17,1.21.13.05.24.12.35.21l6.98,6.24c.52-.2,1.08-.31,1.67-.31,2.57,0,4.65,2.06,4.65,4.6Z" fill="#f09a16" stroke-width="0"/><path d="M76.42,43.92c-1.7-16.8-15.97-29.44-32.19-28.97-15.56.45-28.76,12.87-30.38,28.97v1.84c2.41-15.56,15.76-27.13,31.28-27.13s28.87,11.58,31.28,27.13v-1.84Z" opacity=".21" stroke-width="0"/><text transform="translate(103.05 73.71)" fill="#095d6a" font-family="Verdana, Verdana" stroke="#1b7487" stroke-miterlimit="10" stroke-width="4"><tspan x="0" y="0" font-size="48" letter-spacing=".07em">talent</tspan><tspan x="158.96" y="0" font-size="50" letter-spacing=".07em">S</tspan><tspan x="196.64" y="0" font-size="48" letter-spacing=".07em">cope</tspan></text></g></svg>